<svg width="224" height="223" viewBox="0 0 224 223" fill="none" xmlns="http://www.w3.org/2000/svg">
<g clip-path="url(#clip0_2535_15286)">
<g filter="url(#filter0_b_2535_15286)">
<path d="M223.25 222.802H26.9308L0.75 196.621V0.301758H197.069L223.25 26.4826V222.802Z" fill="white" fill-opacity="0.05"/>
<path d="M222.75 222.302H27.1379L1.25 196.414V0.801758H196.862L222.75 26.6897V222.302Z" stroke="white"/>
</g>
<path d="M181.965 106.171H164.819L121.573 147.252V106.171H106.45V181.7H121.573V163.65L142.765 143.483L167.166 181.7H183.752L153.209 133.552L181.972 106.171H181.965Z" fill="white"/>
<path d="M76.2515 15.4053V45.5978H30.9356V15.4053H15.8394V91.0755H30.9356V60.7278H76.2515V91.0755H91.3478V15.4053H76.2515Z" fill="white"/>
<path d="M70.1766 136.371H30.9356V121.275H91.3545V106.178H15.8394V181.693H70.6148C85.9403 181.693 95.1168 171.553 95.1168 159.046C95.1168 146.538 85.6639 136.398 70.1833 136.398V136.371H70.1766ZM71.0666 168.62H30.9356V149.916H70.9182C77.5528 149.916 80.4992 153.679 80.4992 158.992C80.4992 164.305 77.5797 168.627 71.0666 168.627V168.62Z" fill="white"/>
<path d="M106.45 15.4053V91.0755H121.547V30.5016H166.862V91.0687H181.959V15.4053H106.444H106.45Z" fill="white"/>
<path d="M30.8823 203.633L32.1364 203.458C32.4601 205.029 33.9838 206.269 35.838 206.269C38.0967 206.269 39.8026 204.698 40.0183 202.514H34.0445V201.334H40.0183C39.7823 199.122 38.0832 197.605 35.838 197.605C34.031 197.605 32.487 198.873 32.1499 200.491L30.9093 200.329C31.2599 198.131 33.3298 196.439 35.8785 196.439C39.0676 196.439 41.3735 198.738 41.3735 201.934C41.3735 205.13 39.0744 207.443 35.8785 207.443C33.3029 207.443 31.2329 205.797 30.8823 203.64V203.633Z" fill="white"/>
<path d="M49.9637 207.51V206.304C47.051 206.202 45.1833 204.267 45.1833 201.887C45.1833 199.507 47.0308 197.545 49.9772 197.458V196.365H51.3055V197.458C54.2317 197.498 56.0993 199.44 56.0993 201.887C56.0993 204.335 54.2182 206.256 51.292 206.304V207.51H49.9637ZM49.9772 198.637C47.8803 198.698 46.5116 200.181 46.5116 201.874C46.5116 203.566 47.9073 205.063 49.9772 205.137V198.637ZM51.3055 205.13C53.3754 205.13 54.7711 203.627 54.7711 201.867C54.7711 200.107 53.3754 198.631 51.3055 198.631V205.13Z" fill="white"/>
<path d="M64.5472 207.51V206.304C61.6345 206.202 59.7668 204.267 59.7668 201.887C59.7668 199.507 61.6143 197.545 64.5607 197.458V196.365H65.889V197.458C68.8152 197.498 70.6828 199.44 70.6828 201.887C70.6828 204.335 68.8017 206.256 65.8755 206.304V207.51H64.5472ZM64.5607 198.637C62.4638 198.698 61.0951 200.181 61.0951 201.874C61.0951 203.566 62.4908 205.063 64.5607 205.137V198.637ZM65.8822 205.13C67.9521 205.13 69.3478 203.627 69.3478 201.867C69.3478 200.107 67.9521 198.631 65.8822 198.631V205.13Z" fill="white"/>
<path d="M75.1328 207.073V196.804H82.1854V197.971H76.4746V201.173H81.6055V202.34H76.4746V205.906H82.3337V207.073H75.1396H75.1328Z" fill="white"/>
<path d="M86.9181 207.073V196.804H88.2464V201.288H88.3947L92.6492 196.804H94.3078L89.5274 201.773L94.4494 207.08H92.7705L88.388 202.259H88.2396V207.08H86.9114L86.9181 207.073Z" fill="white"/>
<path d="M100.815 207.073V197.971H97.4036V196.804H105.548V197.971H102.137V207.073H100.808H100.815Z" fill="white"/>
<path d="M117.779 207.073H116.45V198.55H116.322L111.454 207.073H109.546V196.804H110.888V205.327H111.016L115.884 196.804H117.779V207.073Z" fill="white"/>
<path d="M123.038 207.073V196.804H127.508C129.389 196.804 130.758 197.957 130.758 199.555C130.758 200.533 130.131 201.403 129.254 201.679V201.827C130.306 202.117 131.048 203.081 131.048 204.187C131.048 205.846 129.565 207.073 127.495 207.073H123.038ZM124.366 201.214H127.353C128.573 201.214 129.45 200.546 129.45 199.596C129.45 198.645 128.573 197.964 127.353 197.964H124.366V201.214ZM124.366 205.906H127.326C128.722 205.906 129.747 205.151 129.747 204.113C129.747 203.075 128.728 202.38 127.326 202.38H124.366V205.906Z" fill="white"/>
<path d="M135.652 207.073V196.804H136.994V201.133H142.53V196.804H143.858V207.073H142.53V202.293H136.994V207.073H135.652Z" fill="white"/>
<path d="M148.457 201.927C148.457 198.724 150.756 196.432 154.006 196.432C157.256 196.432 159.555 198.717 159.555 201.927C159.555 205.136 157.256 207.435 154.006 207.435C150.756 207.435 148.457 205.163 148.457 201.927ZM158.213 201.927C158.213 199.405 156.467 197.598 154.006 197.598C151.545 197.598 149.778 199.405 149.778 201.927C149.778 204.448 151.538 206.269 154.006 206.269C156.474 206.269 158.213 204.448 158.213 201.927Z" fill="white"/>
<path d="M163.526 201.927C163.526 198.738 165.758 196.432 168.846 196.432C171.165 196.432 173.201 198.003 173.727 200.16L172.433 200.335C172.042 198.751 170.538 197.598 168.846 197.598C166.513 197.598 164.854 199.419 164.854 201.927C164.854 204.435 166.526 206.269 168.846 206.269C170.504 206.269 172.008 205.15 172.446 203.633L173.714 203.882C173.201 205.918 171.165 207.435 168.846 207.435C165.758 207.435 163.512 205.116 163.526 201.927Z" fill="white"/>
<path d="M180.47 207.073V197.971H177.058V196.804H185.203V197.971H181.791V207.073H180.463H180.47Z" fill="white"/>
<path d="M189.208 207.073V196.804H190.549V200.405H193.509C195.654 200.405 197.123 201.922 197.123 203.742C197.123 205.563 195.654 207.08 193.509 207.08H189.214L189.208 207.073ZM190.549 205.906H193.287C194.757 205.906 195.795 204.989 195.795 203.749C195.795 202.508 194.764 201.578 193.287 201.578H190.549V205.906Z" fill="white"/>
</g>
<defs>
<filter id="filter0_b_2535_15286" x="-24.25" y="-24.6982" width="272.5" height="272.5" filterUnits="userSpaceOnUse" color-interpolation-filters="sRGB">
<feFlood flood-opacity="0" result="BackgroundImageFix"/>
<feGaussianBlur in="BackgroundImageFix" stdDeviation="12.5"/>
<feComposite in2="SourceAlpha" operator="in" result="effect1_backgroundBlur_2535_15286"/>
<feBlend mode="normal" in="SourceGraphic" in2="effect1_backgroundBlur_2535_15286" result="shape"/>
</filter>
<clipPath id="clip0_2535_15286">
<rect width="222.5" height="222.5" fill="white" transform="translate(0.75 0.301758)"/>
</clipPath>
</defs>
</svg>
