<?xml version="1.0" encoding="UTF-8"?>
<svg xmlns="http://www.w3.org/2000/svg" width="698" height="698" viewBox="0 0 698 698" fill="none">
  <g clip-path="url(#clip0_66_238)">
    <path d="M615.883 0H0V615.883H615.883V0Z" fill="#FF0000"></path>
    <path d="M698 698H82.1169L0 615.883V0H615.883L698 82.1169V698Z" fill="#FF0000"></path>
    <path d="M115.862 623.177C121.523 623.177 126.276 625.047 130.107 628.812C133.952 632.565 135.874 637.094 135.874 642.386C135.874 647.679 133.939 652.222 130.081 655.974C126.21 659.739 121.47 661.622 115.875 661.622C113.939 661.622 112.083 661.359 110.306 660.845C108.528 660.332 107.067 659.713 105.908 658.989C104.749 658.265 103.736 657.554 102.867 656.83C101.998 656.105 101.353 655.513 100.958 655.026L100.312 654.236L105.065 649.22C105.171 649.351 105.316 649.549 105.5 649.799C105.684 650.049 106.132 650.47 106.817 651.076C107.501 651.682 108.225 652.208 108.976 652.656C109.726 653.104 110.727 653.525 111.991 653.92C113.242 654.315 114.532 654.499 115.875 654.499C118.89 654.499 121.405 653.683 123.406 652.064C125.407 650.444 126.75 648.351 127.461 645.823H111.122V638.726H127.461C126.763 636.343 125.381 634.342 123.314 632.723C121.247 631.103 118.771 630.287 115.888 630.287C114.624 630.287 113.4 630.471 112.228 630.84C111.056 631.208 110.082 631.656 109.305 632.17C108.528 632.683 107.857 633.197 107.277 633.697C106.698 634.197 106.277 634.645 106.04 635.027L105.605 635.566L100.615 630.55C100.747 630.339 100.958 630.076 101.221 629.747C101.484 629.405 102.09 628.825 103.038 627.983C103.986 627.153 105 626.403 106.079 625.744C107.172 625.099 108.594 624.507 110.345 623.98C112.109 623.454 113.953 623.203 115.888 623.203L115.862 623.177Z" fill="white"></path>
    <path d="M167.459 657.159V661.885H159.56V657.159C154.636 657.027 150.607 655.474 147.447 652.511C144.287 649.549 142.72 646.007 142.72 641.86C142.72 637.713 144.3 634.171 147.473 631.222C150.633 628.272 154.675 626.732 159.573 626.587V622.624H167.472V626.587C172.397 626.719 176.439 628.272 179.598 631.222C182.758 634.171 184.351 637.713 184.351 641.86C184.351 646.007 182.771 649.549 179.598 652.511C176.439 655.46 172.397 657.014 167.472 657.159H167.459ZM153.029 635.961C151.423 637.502 150.607 639.477 150.607 641.86C150.607 644.243 151.423 646.218 153.042 647.758C154.662 649.299 156.834 650.141 159.56 650.273V633.433C156.821 633.565 154.636 634.408 153.029 635.948V635.961ZM174.003 647.771C175.622 646.231 176.439 644.256 176.439 641.873C176.439 639.49 175.635 637.515 174.003 635.975C172.383 634.434 170.198 633.592 167.459 633.46V650.299C170.198 650.168 172.383 649.325 174.003 647.785V647.771Z" fill="white"></path>
    <path d="M215.371 657.159V661.885H207.471V657.159C202.547 657.027 198.518 655.474 195.358 652.511C192.199 649.549 190.632 646.007 190.632 641.86C190.632 637.713 192.212 634.171 195.372 631.222C198.531 628.272 202.573 626.732 207.471 626.587V622.624H215.371V626.587C220.295 626.719 224.337 628.272 227.497 631.222C230.657 634.171 232.237 637.713 232.237 641.86C232.237 646.007 230.657 649.549 227.497 652.511C224.324 655.46 220.295 657.014 215.371 657.159ZM200.941 635.961C199.335 637.502 198.518 639.477 198.518 641.86C198.518 644.243 199.321 646.218 200.954 647.758C202.573 649.299 204.746 650.141 207.471 650.273V633.433C204.733 633.565 202.547 634.408 200.941 635.948V635.961ZM221.914 647.771C223.534 646.231 224.35 644.256 224.35 641.873C224.35 639.49 223.547 637.515 221.914 635.975C220.295 634.434 218.109 633.592 215.371 633.46V650.299C218.109 650.168 220.295 649.325 221.914 647.785V647.771Z" fill="white"></path>
    <path d="M249.089 653.736H268.838V660.832H241.163V623.941H268.298V631.064H249.089V638.437H264.085V645.533H249.089V653.722V653.736Z" fill="white"></path>
    <path d="M286.204 623.954V640.03L300.687 623.954H309.89L296.211 639.24L310.943 660.845H301.74L290.944 645.046L286.217 650.299V660.845H278.292V623.954H286.217H286.204Z" fill="white"></path>
    <path d="M314.104 623.954H343.069V631.077H332.549V660.832H324.65V631.077H314.104V623.954Z" fill="white"></path>
    <path d="M383.883 660.832H375.984V637.396L357.828 660.832H350.968V623.941H358.894V647.403L377.05 623.941H383.897V660.832H383.883Z" fill="white"></path>
    <path d="M412.177 660.832H395.457V623.941H411.269C414.613 623.941 417.378 624.928 419.564 626.877C421.749 628.825 422.842 631.103 422.842 633.684C422.842 634.658 422.71 635.593 422.434 636.475C422.157 637.357 421.802 638.094 421.381 638.674C420.959 639.253 420.525 639.753 420.103 640.174C419.682 640.596 419.34 640.899 419.063 641.07L418.629 641.32C418.8 641.386 419.024 641.491 419.287 641.623C419.55 641.754 420.038 642.07 420.735 642.571C421.433 643.071 422.052 643.624 422.592 644.23C423.132 644.835 423.606 645.652 424.04 646.692C424.475 647.732 424.698 648.838 424.698 650.023C424.698 652.972 423.527 655.513 421.17 657.633C418.813 659.752 415.824 660.819 412.164 660.819L412.177 660.832ZM410.742 630.524H403.383V638.45H410.742C412.046 638.45 413.073 638.094 413.823 637.37C414.574 636.646 414.956 635.685 414.956 634.487C414.956 633.289 414.574 632.327 413.823 631.603C413.073 630.879 412.046 630.524 410.742 630.524ZM403.383 654.249H411.796C413.231 654.249 414.429 653.788 415.39 652.88C416.338 651.971 416.812 650.852 416.812 649.509C416.812 648.166 416.338 647.034 415.39 646.126C414.442 645.204 413.244 644.743 411.796 644.743H403.383V654.236V654.249Z" fill="white"></path>
    <path d="M465.777 623.954V660.845H457.877V645.823H442.091V660.845H434.165V623.954H442.091V638.726H457.877V623.954H465.777Z" fill="white"></path>
    <path d="M481.036 655.987C477.165 652.222 475.243 647.692 475.243 642.4C475.243 637.107 477.179 632.578 481.036 628.825C484.907 625.073 489.647 623.19 495.256 623.19C500.864 623.19 505.617 625.06 509.475 628.825C513.346 632.578 515.281 637.107 515.281 642.4C515.281 647.692 513.346 652.235 509.475 655.987C505.604 659.753 500.864 661.635 495.256 661.635C489.647 661.635 484.894 659.753 481.036 655.987ZM486.869 633.789C484.565 636.133 483.419 639.003 483.419 642.4C483.419 645.797 484.565 648.667 486.869 650.997C489.173 653.328 491.964 654.499 495.269 654.499C498.573 654.499 501.365 653.328 503.669 650.997C505.973 648.667 507.118 645.797 507.118 642.4C507.118 639.003 505.973 636.119 503.669 633.789C501.365 631.445 498.573 630.274 495.269 630.274C491.964 630.274 489.173 631.445 486.869 633.789Z" fill="white"></path>
    <path d="M542.68 623.177C544.615 623.177 546.458 623.427 548.209 623.928C549.961 624.441 551.396 625.047 552.515 625.771C553.634 626.495 554.634 627.206 555.503 627.93C556.372 628.654 556.991 629.26 557.373 629.76L557.965 630.524L552.949 635.54C552.844 635.408 552.712 635.211 552.528 634.961C552.344 634.711 551.949 634.289 551.317 633.684C550.685 633.078 550.013 632.551 549.276 632.104C548.539 631.656 547.564 631.235 546.366 630.84C545.168 630.445 543.944 630.26 542.693 630.26C539.243 630.26 536.36 631.419 534.056 633.736C531.752 636.054 530.58 638.937 530.58 642.373C530.58 645.81 531.739 648.706 534.056 651.01C536.373 653.314 539.256 654.486 542.693 654.486C544.036 654.486 545.313 654.302 546.537 653.933C547.762 653.564 548.776 653.13 549.579 652.616C550.382 652.116 551.093 651.603 551.712 651.089C552.33 650.576 552.778 650.128 553.055 649.746L553.463 649.206L558.216 654.223C558.084 654.433 557.873 654.697 557.584 655.026C557.307 655.368 556.675 655.947 555.701 656.803C554.727 657.646 553.7 658.396 552.594 659.042C551.488 659.687 550.04 660.266 548.249 660.806C546.458 661.332 544.602 661.596 542.68 661.596C537.058 661.596 532.305 659.713 528.447 655.947C524.576 652.182 522.641 647.653 522.641 642.36C522.641 637.067 524.576 632.538 528.447 628.786C532.318 625.034 537.058 623.151 542.68 623.151V623.177Z" fill="white"></path>
    <path d="M562.942 623.954H591.908V631.077H581.388V660.832H573.488V631.077H562.942V623.954Z" fill="white"></path>
    <path d="M615.343 660.832H599.807V623.941H607.733V636.053H615.343C619.135 636.053 622.282 637.238 624.77 639.608C627.259 641.991 628.509 644.927 628.509 648.443C628.509 651.958 627.259 654.894 624.77 657.264C622.282 659.634 619.135 660.819 615.343 660.819V660.832ZM607.733 653.736H615.093C616.673 653.736 617.99 653.222 619.043 652.208C620.096 651.181 620.623 649.944 620.623 648.469C620.623 646.994 620.096 645.744 619.043 644.73C617.99 643.716 616.673 643.203 615.093 643.203H607.733V653.749V653.736Z" fill="white"></path>
    <path d="M615.883 0H0V615.883H615.883V0Z" fill="#FF0000"></path>
    <path d="M560.059 331.048H504.169L379.196 456.034V331.627H331.812V568.512H379.196V511.924L444.434 446.686L520.1 568.512H574.239L476.612 414.508L560.059 331.048Z" fill="white"></path>
    <path d="M236.884 47.3716V142.128H94.7563V47.3716H47.3716V284.256H94.7563V189.499H236.884V284.256H284.256V47.3716H236.884Z" fill="white"></path>
    <path d="M217.846 426.384H94.7563V379.012H284.256V331.641H47.3716V568.525H219.228C267.351 568.525 296.092 536.702 296.092 497.454C296.092 458.206 266.416 426.384 217.833 426.384H217.846ZM220.624 527.539H94.7563V468.831H220.163C240.979 468.831 250.195 480.628 250.195 497.309C250.195 513.991 240.992 527.539 220.624 527.539Z" fill="white"></path>
    <path d="M331.627 47.3716V284.256H379.012V94.7563H521.14V284.256H568.512V47.3716H331.627Z" fill="white"></path>
  </g>
  <defs>
    <clipPath id="clip0_66_238">
      <rect width="698" height="698" fill="white"></rect>
    </clipPath>
  </defs>
</svg>
