<svg width="40" height="41" viewBox="0 0 40 41" fill="none" xmlns="http://www.w3.org/2000/svg">
<circle cx="20" cy="20.9609" r="18.125" fill="white"/>
<path d="M26.875 16.0508C26.8377 16.3791 26.7631 16.744 26.6886 17.0724C26.0547 19.9914 25.4209 22.9104 24.787 25.8294C24.7497 26.0118 24.7124 26.1578 24.6379 26.3037C24.4887 26.5591 24.265 26.6321 23.9667 26.5591C23.7803 26.5226 23.6312 26.4497 23.482 26.3402C22.5126 25.6469 21.5805 24.9537 20.6111 24.2604C20.4992 24.1874 20.4246 24.1874 20.3128 24.2969C19.828 24.7347 19.3806 25.2091 18.8959 25.6469C18.7095 25.8294 18.5231 25.9388 18.2621 25.9023C18.0756 25.9023 17.9638 25.8294 17.9265 25.6469C17.6282 24.7347 17.3299 23.859 17.0316 22.9469C16.9198 22.655 16.8079 22.3266 16.7334 22.0347C16.6961 21.9252 16.6588 21.8522 16.5097 21.8158C15.5775 21.5239 14.6454 21.232 13.7132 20.9765C13.6014 20.9401 13.4522 20.9036 13.3404 20.8306C13.0794 20.6846 13.0421 20.4657 13.3031 20.2468C13.4522 20.1009 13.6387 20.0279 13.8624 19.9549C15.1301 19.4806 16.3978 19.0062 17.6655 18.5319C20.4246 17.5102 23.1465 16.4521 25.9056 15.4305C25.9429 15.4305 25.9429 15.4305 25.9802 15.394C26.4649 15.2115 26.875 15.467 26.875 16.0508ZM18.2621 25.0631C18.2993 25.0266 18.2993 24.9902 18.2993 24.9902C18.3739 24.3334 18.4112 23.6766 18.4858 23.0198C18.4858 22.8739 18.5603 22.7279 18.6722 22.6185C20.4619 21.0495 22.2516 19.4806 24.0413 17.9116C24.1532 17.8021 24.265 17.7292 24.3769 17.6197C24.4142 17.5832 24.4887 17.5467 24.4514 17.4738C24.4142 17.4008 24.3396 17.4008 24.265 17.4008C24.1159 17.4008 24.004 17.4738 23.8922 17.5467C21.6923 18.8968 19.4925 20.2468 17.2926 21.6333C17.1808 21.7063 17.1435 21.7793 17.1808 21.9252C17.4418 22.7279 17.7028 23.5307 18.0011 24.3334C18.0756 24.5523 18.1875 24.8077 18.2621 25.0631Z" fill="#1A1B1C"/>
</svg>
