<svg width="45" height="45" viewBox="0 0 45 45" fill="none" xmlns="http://www.w3.org/2000/svg">
<path d="M22.5 44.6653C34.7624 44.6653 44.7031 34.7692 44.7031 22.5617C44.7031 10.3542 34.7624 0.458008 22.5 0.458008C10.2376 0.458008 0.296875 10.3542 0.296875 22.5617C0.296875 34.7692 10.2376 44.6653 22.5 44.6653Z" fill="#181818"/>
<path d="M32 15.0167C31.9485 15.4836 31.8454 16.0026 31.7424 16.4696C30.8665 20.6211 29.9907 24.7726 29.1148 28.924C29.0632 29.1835 29.0117 29.3911 28.9087 29.5986C28.7026 29.9618 28.3935 30.0657 27.9813 29.9618C27.7237 29.9099 27.5177 29.8063 27.3115 29.6505C25.972 28.6645 24.684 27.6786 23.3444 26.6926C23.1898 26.5888 23.0867 26.5888 22.9322 26.7445C22.2623 27.3671 21.6441 28.0418 20.9743 28.6645C20.7168 28.924 20.4592 29.0796 20.0985 29.0277C19.8408 29.0277 19.6863 28.924 19.6348 28.6645C19.2226 27.3671 18.8104 26.1217 18.3982 24.8245C18.2437 24.4093 18.0891 23.9423 17.9861 23.5271C17.9346 23.3714 17.8831 23.2676 17.677 23.2158C16.3889 22.8007 15.1009 22.3855 13.8128 22.0221C13.6583 21.9704 13.4521 21.9185 13.2976 21.8146C12.937 21.607 12.8854 21.2957 13.2461 20.9843C13.4521 20.7768 13.7098 20.673 14.0189 20.5692C15.7707 19.8946 17.5224 19.2199 19.2741 18.5454C23.0867 17.0923 26.8479 15.5874 30.6605 14.1345C30.712 14.1345 30.712 14.1345 30.7635 14.0826C31.4333 13.823 32 14.1864 32 15.0167ZM20.0985 27.8342C20.1499 27.7823 20.1499 27.7305 20.1499 27.7305C20.253 26.7964 20.3046 25.8623 20.4076 24.9282C20.4076 24.7207 20.5106 24.513 20.6652 24.3574C23.1383 22.126 25.6113 19.8946 28.0843 17.6632C28.239 17.5074 28.3935 17.4038 28.5481 17.248C28.5996 17.1961 28.7026 17.1442 28.651 17.0405C28.5996 16.9367 28.4965 16.9367 28.3935 16.9367C28.1874 16.9367 28.0328 17.0405 27.8783 17.1442C24.8384 19.0643 21.7987 20.9843 18.7589 22.9563C18.6044 23.0601 18.5528 23.1639 18.6044 23.3714C18.965 24.513 19.3257 25.6548 19.7379 26.7964C19.8408 27.1077 19.9955 27.471 20.0985 27.8342Z" fill="white"/>
</svg>
