<svg width="40" height="41" viewBox="0 0 40 41" fill="none" xmlns="http://www.w3.org/2000/svg">
<circle cx="20" cy="20.9609" r="18.125" fill="white"/>
<path d="M26.8535 17.5997C26.7105 17.5938 26.5675 17.6114 26.4245 17.6114C25.6537 17.6173 24.8828 17.6173 24.112 17.6173C23.882 17.6173 23.739 17.729 23.6458 17.9288C23.4593 18.3285 23.2852 18.7341 23.08 19.1221C22.7319 19.7922 22.3216 20.4329 21.8181 21.0148C21.6938 21.1617 21.5384 21.2852 21.3892 21.4027C21.1964 21.5556 20.9291 21.4674 20.8421 21.2029C20.7737 20.9972 20.7302 20.7738 20.7364 20.5563C20.7426 19.8098 20.7737 19.0574 20.7799 18.3109C20.7799 18.1052 20.7364 17.8994 20.6929 17.6937C20.6556 17.4997 20.5126 17.3822 20.3199 17.3469C20.0526 17.294 19.7853 17.247 19.518 17.2352C18.8217 17.1941 18.1255 17.2 17.4354 17.294C17.1433 17.3351 16.9008 17.4468 16.7143 17.6584C16.6086 17.776 16.6211 17.8171 16.7765 17.8465C17.2925 17.9523 17.4852 18.1522 17.5846 18.7047C17.6965 19.3454 17.6903 19.9803 17.6033 20.621C17.566 20.8737 17.5411 21.1265 17.3981 21.3498C17.3173 21.4674 17.1806 21.5438 17.0438 21.4909C16.8884 21.4263 16.733 21.344 16.6086 21.2382C16.2792 20.956 16.0554 20.6033 15.8502 20.233C15.5083 19.6217 15.1851 19.0045 14.8618 18.3873C14.7996 18.2698 14.7437 18.1404 14.694 18.017C14.5758 17.7349 14.3396 17.5997 14.035 17.5997C13.2704 17.5879 12.5057 17.6055 11.7411 17.6114C11.5422 17.6114 11.3681 17.6643 11.25 17.8289C11.25 17.8936 11.25 17.9582 11.25 18.0229C11.6292 18.7753 11.9898 19.5335 12.3876 20.2742C12.6736 20.8091 13.0031 21.3204 13.3325 21.8377C13.8112 22.5901 14.3769 23.2896 14.9675 23.9656C15.3032 24.3535 15.7072 24.6768 16.1548 24.9413C16.534 25.1647 16.9195 25.388 17.3235 25.5703C17.8271 25.7936 18.3679 25.9112 18.9274 25.9229C19.3626 25.9288 19.7915 25.9288 20.2267 25.9053C20.5686 25.8877 20.724 25.7055 20.7489 25.3822C20.7675 25.1235 20.7862 24.8708 20.8359 24.618C20.8856 24.3711 21.0037 24.1595 21.2213 23.995C21.3581 23.8891 21.4948 23.8833 21.644 23.9479C21.9238 24.0714 22.1227 24.2771 22.3216 24.4887C22.6262 24.8002 22.9184 25.1235 23.2355 25.4233C23.5774 25.7407 23.9877 25.9523 24.4788 25.9582C24.9264 25.97 25.3802 25.9406 25.8278 25.9288C26.1883 25.9229 26.5427 25.9171 26.9032 25.8994C27.2451 25.8877 27.3943 25.7819 27.5 25.4821C27.5 25.4645 27.5 25.4468 27.5 25.4351C27.3819 24.8649 26.9778 24.4593 26.58 24.0596C26.1634 23.6364 25.7159 23.2367 25.2807 22.8311C25.1999 22.7547 25.1191 22.6724 25.0445 22.5901C24.7958 22.3021 24.7772 22.0258 25.0072 21.726C25.3926 21.2205 25.7842 20.7268 26.1759 20.2271C26.5862 19.704 26.9965 19.1867 27.2949 18.5989C27.3757 18.4402 27.4316 18.2698 27.5 18.0993C27.5 18.0229 27.5 17.9523 27.5 17.8759C27.3695 17.6173 27.1084 17.6114 26.8535 17.5997Z" fill="#1A1B1C"/>
</svg>
