<svg width="45" height="45" viewBox="0 0 45 45" fill="none" xmlns="http://www.w3.org/2000/svg">
<path d="M22.5 44.6653C34.7624 44.6653 44.7031 34.7692 44.7031 22.5617C44.7031 10.3542 34.7624 0.458008 22.5 0.458008C10.2376 0.458008 0.296875 10.3542 0.296875 22.5617C0.296875 34.7692 10.2376 44.6653 22.5 44.6653Z" fill="#181818"/>
<path d="M33.0452 16.5776C32.834 16.5688 32.6228 16.5949 32.4116 16.5949C31.2732 16.6037 30.1346 16.6037 28.9962 16.6037C28.6565 16.6037 28.4453 16.7697 28.3076 17.0665C28.0322 17.6604 27.7751 18.263 27.472 18.8394C26.9579 19.835 26.3519 20.7869 25.6083 21.6514C25.4247 21.8697 25.1952 22.0532 24.9748 22.2277C24.6901 22.4549 24.2953 22.3239 24.1668 21.9309C24.0658 21.6253 24.0015 21.2934 24.0107 20.9702C24.0198 19.8611 24.0658 18.7433 24.0749 17.6342C24.0749 17.3286 24.0107 17.0228 23.9464 16.7172C23.8913 16.429 23.6801 16.2544 23.3955 16.202C23.0008 16.1234 22.606 16.0535 22.2112 16.036C21.1828 15.975 20.1546 15.9837 19.1354 16.1234C18.704 16.1844 18.3458 16.3504 18.0704 16.6648C17.9142 16.8395 17.9327 16.9006 18.1622 16.9442C18.9243 17.1014 19.2089 17.3984 19.3557 18.2193C19.521 19.1712 19.5118 20.1145 19.3833 21.0664C19.3282 21.4418 19.2915 21.8174 19.0803 22.1491C18.9609 22.3239 18.759 22.4374 18.557 22.3588C18.3275 22.2628 18.098 22.1405 17.9142 21.9833C17.4277 21.5641 17.0972 21.0401 16.7941 20.4899C16.2892 19.5817 15.8118 18.6647 15.3344 17.7477C15.2425 17.5731 15.1599 17.3809 15.0865 17.1975C14.912 16.7784 14.5631 16.5776 14.1132 16.5776C12.984 16.56 11.8546 16.5862 10.7253 16.5949C10.4316 16.5949 10.1744 16.6735 10 16.9181C10 17.0142 10 17.1102 10 17.2063C10.56 18.3242 11.0926 19.4506 11.6801 20.5511C12.1025 21.3458 12.5892 22.1055 13.0757 22.874C13.7827 23.9919 14.6182 25.0311 15.4905 26.0355C15.9863 26.6118 16.5829 27.0921 17.244 27.4851C17.8041 27.817 18.3734 28.1488 18.9701 28.4196C19.7139 28.7514 20.5126 28.9261 21.3389 28.9435C21.9817 28.9522 22.6151 28.9522 23.2579 28.9173C23.7629 28.8912 23.9924 28.6205 24.0291 28.1402C24.0566 27.7558 24.0842 27.3804 24.1576 27.0048C24.231 26.6379 24.4055 26.3236 24.7268 26.0792C24.9289 25.9218 25.1308 25.9132 25.3511 26.0092C25.7644 26.1927 26.0581 26.4983 26.3519 26.8127C26.8018 27.2755 27.2333 27.7558 27.7017 28.2012C28.2066 28.6728 28.8126 28.9872 29.5379 28.9959C30.199 29.0135 30.8692 28.9698 31.5303 28.9522C32.0627 28.9435 32.5861 28.9349 33.1186 28.9086C33.6235 28.8912 33.8439 28.734 34 28.2886C34 28.2624 34 28.2361 34 28.2187C33.8256 27.3716 33.2288 26.769 32.6412 26.1751C32.0259 25.5464 31.365 24.9525 30.7223 24.3499C30.6029 24.2364 30.4836 24.1142 30.3734 23.9919C30.0061 23.564 29.9786 23.1535 30.3183 22.7081C30.8875 21.957 31.4659 21.2235 32.0444 20.4811C32.6504 19.704 33.2564 18.9354 33.6971 18.0621C33.8164 17.8263 33.899 17.5731 34 17.3198C34 17.2063 34 17.1014 34 16.9879C33.8073 16.6037 33.4216 16.5949 33.0452 16.5776Z" fill="white"/>
</svg>
